<svg width="1000" height="1000" viewBox="0 0 1000 1000" xmlns="http://www.w3.org/2000/svg">
    <style>
        .red{
        fill: #cb3c33;
        }

        .green{
        fill: #389826;
        }

        .violet{
        fill: #9558b2;
        }

        .blue{
        fill: #4063d8;
        }

        .face{
            fill-opacity:1;
            fill-rule:evenodd;
            stroke:#000;
            stroke-width:0.2vw;
            stroke-linecap:butt;
            stroke-linejoin:miter;
            stroke-opacity:1;
        }

        .title{
            stroke-linecap: round;
            fill-rule: evenodd;
            font-size: 9pt;
            font-size: 180px;
            text-anchor: middle;
            fill: #4063d8;
            stroke: #000;
            stroke-width: 0.25vw;
        }

        .shadow{
            fill: #000;
            stroke: #000;
        }

        .mask{
            stroke-width: 0.25vw;
            stroke: #000;
        }
    </style>

    <defs>
        <path id="title-Q" d="M 6.242 94.924 L 9.842 98.284 C 13.997 94.722 19.68 91.043 27.703 91.662 A 23.781 23.781 0 0 1 27.962 91.684 A 26.877 26.877 0 0 1 35.929 93.68 C 45.389 97.595 52.02 105.665 64.695 106.41 A 31.869 31.869 0 0 0 65.402 106.444 A 27.789 27.789 0 0 0 66.535 106.467 C 76.248 106.467 82.451 101.207 86.1 93.33 A 36.668 36.668 0 0 0 87.482 89.884 L 83.762 87.724 A 41.612 41.612 0 0 1 82.862 88.862 C 80.656 91.525 76.761 95.005 67.802 93.964 A 30.418 30.418 0 0 1 63.083 93.075 C 57.429 91.522 53.9 88.608 49.682 85.924 A 43.8 43.8 0 0 0 74.588 75.208 C 82.806 67.856 87.867 57.327 88.396 45.203 A 48.625 48.625 0 0 0 88.442 43.084 A 42.803 42.803 0 0 0 77.506 13.845 C 69.654 5.253 58.052 0.004 44.282 0.004 A 46.603 46.603 0 0 0 20.273 6.314 C 7.745 13.768 0.002 27.186 0.002 43.084 A 44.148 44.148 0 0 0 5.406 64.661 A 40.751 40.751 0 0 0 22.682 81.244 C 15.602 83.644 10.682 89.284 6.242 94.924 Z M 66.842 43.084 A 87.587 87.587 0 0 0 66.766 39.404 C 65.874 18.211 57.227 4.564 44.282 4.564 C 33.801 4.564 26.068 13.508 23.024 28.161 A 73.678 73.678 0 0 0 21.602 43.084 C 21.602 55.561 24.161 65.718 28.623 72.481 A 18.502 18.502 0 0 0 44.282 81.724 C 57.962 81.724 66.842 66.484 66.842 43.084 Z" vector-effect="non-scaling-stroke"/>
        <path id="title-U" d="M 164.522 18.244 L 164.522 48.604 A 61.745 61.745 0 0 1 163.743 58.824 C 161.229 73.758 152.906 79.324 142.922 79.324 A 20.945 20.945 0 0 1 132.546 76.867 C 124.876 72.581 121.202 62.859 121.202 49.084 L 121.202 18.244 A 23.458 23.458 0 0 1 122.024 11.547 C 122.988 8.357 124.928 5.931 128.495 4.937 A 14.833 14.833 0 0 1 132.482 4.444 L 132.482 1.084 L 89.642 1.084 L 89.642 4.444 A 14.492 14.492 0 0 1 93.822 4.995 C 97.395 6.07 99.251 8.634 100.126 11.97 A 25.05 25.05 0 0 1 100.802 18.244 L 100.802 49.084 C 100.802 72.964 116.642 86.164 138.482 86.164 A 35.686 35.686 0 0 0 150.418 84.305 C 160.457 80.76 165.742 72.452 167.94 62.077 A 64.235 64.235 0 0 0 169.202 48.844 L 169.202 18.244 A 57.943 57.943 0 0 1 169.354 13.606 C 169.88 7.164 171.987 4.675 178.852 4.459 A 32.784 32.784 0 0 1 179.882 4.444 L 179.882 1.084 L 153.842 1.084 L 153.842 4.444 A 22.664 22.664 0 0 1 157.748 4.732 C 162.506 5.574 164.025 8.342 164.41 14.148 A 62.744 62.744 0 0 1 164.522 18.244 Z" vector-effect="non-scaling-stroke"/>
        <path id="title-B" d="M 219.962 1.084 L 184.682 1.084 L 184.682 4.444 C 192.171 4.444 194.93 8.543 195.707 14.122 A 30.074 30.074 0 0 1 195.962 18.244 L 195.962 68.044 A 23.948 23.948 0 0 1 195.164 74.74 C 194.231 77.898 192.342 80.306 188.821 81.319 A 14.957 14.957 0 0 1 184.682 81.844 L 184.682 85.084 L 224.282 85.084 A 100.187 100.187 0 0 0 239.688 84.002 C 250.618 82.289 258.611 78.515 262.776 72.5 A 18.955 18.955 0 0 0 266.042 61.444 A 18.651 18.651 0 0 0 256.809 44.9 C 254.355 43.331 251.437 42.035 248.082 41.006 A 54.915 54.915 0 0 0 243.602 39.844 A 31.989 31.989 0 0 0 251.413 36.236 C 256.344 32.993 259.279 28.442 259.435 22.36 A 20.045 20.045 0 0 0 259.442 21.844 A 16.838 16.838 0 0 0 248.698 5.664 C 243.228 3.076 235.723 1.646 226.304 1.22 A 140.78 140.78 0 0 0 219.962 1.084 Z M 223.802 80.404 L 216.362 80.404 L 216.362 42.604 L 223.802 42.604 C 237.076 42.604 243.592 49.683 244.264 59.684 A 26.269 26.269 0 0 1 244.322 61.444 C 244.322 72.484 237.842 80.404 223.802 80.404 Z M 221.402 37.924 L 216.362 37.924 L 216.362 5.884 L 222.842 5.884 A 23.456 23.456 0 0 1 228.648 6.548 C 236.29 8.5 238.982 14.502 239.153 21.154 A 26.864 26.864 0 0 1 239.162 21.844 A 19.038 19.038 0 0 1 237.771 29.411 C 235.65 34.326 231.042 37.386 223.515 37.859 A 33.666 33.666 0 0 1 221.402 37.924 Z" vector-effect="non-scaling-stroke"/>
        <path id="title-O" d="M 315.122 0.004 A 46.603 46.603 0 0 0 291.113 6.314 C 278.585 13.768 270.842 27.186 270.842 43.084 A 42.828 42.828 0 0 0 281.146 71.605 C 289.033 80.637 300.947 86.164 315.122 86.164 A 46.66 46.66 0 0 0 338.7 80.115 C 350.929 73.024 358.661 60.273 359.246 44.963 A 49.196 49.196 0 0 0 359.282 43.084 A 42.803 42.803 0 0 0 348.346 13.845 C 340.494 5.253 328.892 0.004 315.122 0.004 Z M 299.463 72.481 A 18.502 18.502 0 0 0 315.122 81.724 C 328.802 81.724 337.682 66.484 337.682 43.084 A 87.587 87.587 0 0 0 337.606 39.404 C 336.714 18.211 328.067 4.564 315.122 4.564 C 304.641 4.564 296.908 13.508 293.864 28.161 A 73.678 73.678 0 0 0 292.442 43.084 C 292.442 55.561 295.001 65.718 299.463 72.481 Z" vector-effect="non-scaling-stroke"/>
        <path id="title-x" d="M 373.922 64.324 C 366.602 64.324 361.682 69.124 361.682 75.244 A 10.641 10.641 0 0 0 369.489 85.511 A 14.754 14.754 0 0 0 373.922 86.164 A 14.578 14.578 0 0 0 379.616 85.073 A 10.502 10.502 0 0 0 386.282 75.244 A 10.595 10.595 0 0 0 378.707 65.07 A 14.994 14.994 0 0 0 373.922 64.324 Z" vector-effect="non-scaling-stroke"/>
        <path id="title-j" d="M 400.922 55.924 L 400.922 82.444 C 400.922 88.912 402.367 93.045 404.08 98.054 A 599.38 599.38 0 0 1 404.282 98.644 A 16.477 16.477 0 0 1 405.024 101.376 C 405.998 106.84 403.664 111.364 398.402 111.364 A 7.754 7.754 0 0 1 394.708 110.515 C 392.991 109.588 391.83 107.89 391.682 105.364 A 12.949 12.949 0 0 1 391.663 104.832 C 391.615 101.516 392.944 99.577 395.463 98.828 A 8.591 8.591 0 0 1 397.082 98.524 C 397.082 95.044 394.442 89.884 388.202 89.644 A 12.299 12.299 0 0 0 387.72 89.634 C 381.882 89.634 377.484 93.86 377.99 101.12 A 17.1 17.1 0 0 0 378.002 101.284 C 378.791 110.754 388.901 115.14 396.888 115.636 A 24.444 24.444 0 0 0 398.402 115.684 A 26.174 26.174 0 0 0 406.979 114.397 C 417.51 110.758 420.362 99.746 420.362 85.804 L 420.362 29.524 L 417.122 29.524 C 409.802 36.004 397.562 38.884 390.602 38.884 L 390.602 42.124 A 14.121 14.121 0 0 1 394.481 42.606 C 398.451 43.74 400.029 46.781 400.611 50.705 A 36.072 36.072 0 0 1 400.922 55.924 Z M 408.602 23.884 A 12.289 12.289 0 0 0 416.654 20.949 A 11.151 11.151 0 0 0 420.602 12.484 A 11.571 11.571 0 0 0 410.601 1.239 A 12.843 12.843 0 0 0 408.602 1.084 A 12.25 12.25 0 0 0 399.49 5.098 A 11.017 11.017 0 0 0 396.602 12.484 C 396.602 18.724 402.002 23.884 408.602 23.884 Z" vector-effect="non-scaling-stroke"/>
        <path id="title-l" d="M 458.762 68.044 L 458.762 1.084 L 455.522 1.084 C 448.202 7.564 435.962 10.444 429.002 10.444 L 429.002 13.804 A 14.121 14.121 0 0 1 432.881 14.286 C 436.851 15.42 438.429 18.461 439.011 22.385 A 36.072 36.072 0 0 1 439.322 27.604 L 439.322 68.044 A 31.102 31.102 0 0 1 438.798 74.447 C 437.888 78.675 435.515 81.633 429.648 81.833 A 18.96 18.96 0 0 1 429.002 81.844 L 429.002 85.084 L 469.082 85.084 L 469.082 81.844 A 14.493 14.493 0 0 1 465.241 81.384 C 461.267 80.291 459.687 77.339 459.093 73.509 A 36.287 36.287 0 0 1 458.762 68.044 Z" vector-effect="non-scaling-stroke"/>

        <mask id="textmask">
            <rect width="100%" height="100%" fill="#fff"></rect>

            <path d="M 41,114.375 L 41,384.3125 L 273.21875,440.0625 L 273.42958,169.08208 L 41,114.375 z M 68.53125,153.5625 L 245.78125,195.375 L 245.78125,402.15625 L 68.53125,359.59375 L 68.53125,153.5625 z " class="mask" />
            <path d="M 434.76093,90.164629 L 434.76093,360.10211 L 273.25673,440.17893 L 273.25673,169.0931 L 434.76093,90.164629 z M 415.61341,132.23628 L 292.33905,192.61706 L 292.33905,399.39831 L 415.61341,338.26753 L 415.61341,132.23628 z " class="mask" />
        </mask>
    </defs>

    <g
        transform="matrix(1.838166,0,0,1.838166,-64.3648,-50.94291) translate(70.0, 70.0)"
        id="cube">
        <path d="M 415.76525,338.12495 L 292.36736,399.36041 L 292.36736,378.71707 L 389.50452,331.22615 L 415.76525,338.12495 z " class="green face" />
        <path d="M 86.952451,350.25926 L 211.48225,288.56327 L 211.48225,320.29978 L 130.43423,360.55443" class="red face" />
        <path d="M 247.44219,388.17706 L 87.140094,350.28156 L 68.541801,359.56405 L 247.14328,402.3755" class="green face" />
        <path d="M 86.658325,329.93645 L 184.36654,281.93854 L 211.34752,288.84606 L 86.885484,350.46546" class="green face"/>
        <path d="M 68.484778,359.64478 L 87.068021,350.37735 L 86.685237,157.41184 L 68.152531,153.22704" class="red face" />
        <path d="M 41,114.375 L 41,384.3125 L 273.21875,440.0625 L 273.42958,169.08208 L 41,114.375 z M 68.53125,153.5625 L 245.78125,195.375 L 245.78125,402.15625 L 68.53125,359.59375 L 68.53125,153.5625 z " class="violet face" />
        <path d="M 86.943958,111.8566 L 210.94182,50.494216 L 210.94182,82.633978 L 130.62329,122.04112 L 130.62329,122.04112" class="red face" />
        <path d="M 389.07175,93.295537 L 210.73046,50.388534 L 210.83614,82.621628 L 345.18596,114.8157" class="violet face" />
        <path d="M 202.8125,34.53125 L 41.40625,114.46875 L 273.34375,169 L 434.8125,90.28125 L 202.8125,34.53125 z M 211.0625,50.4375 L 389.3125,93.28125 L 265.25,153.71875 L 87.0625,111.84375 L 211.0625,50.4375 z " class="green face" />
        <path d="M 210.83037,82.657166 L 230.32439,87.325903 L 230.32439,279.44925 L 210.83037,289.14643 L 211.31122,289.09834" class="red face" />
        <path d="M 184.30989,282.14977 L 184.30989,95.620557 L 210.81896,82.69695 L 211.37459,288.91137" class="violet face" />
        <path d="M 434.76093,90.164629 L 434.76093,360.10211 L 273.25673,440.17893 L 273.25673,169.0931 L 434.76093,90.164629 z M 415.61341,132.23628 L 292.33905,192.61706 L 292.33905,399.39831 L 415.61341,338.26753 L 415.61341,132.23628 z " class="red face" />
        <path d="M 211.52275,288.79783 L 211.52275,320.22737 L 346.0142,352.5246 L 389.68777,331.21807" class="violet face" />
        <path d="M 390.53194,317.33115 L 230.46317,279.36899 L 211.63155,288.7848 L 390.23303,331.52959" class="green face" />
        <path d="M 415.72361,132.10888 L 389.56901,144.69037 L 389.43568,331.13994 L 415.85694,338.0122" class="violet face" />
        <use x="0" y="195" class="title face" href="#title-Q" />
        <use x="0" y="195" class="title face" href="#title-U" />
        <use x="0" y="195" class="title face" href="#title-x" />
        <use x="0" y="195" class="title face" href="#title-j" />
        <use x="0" y="195" class="title face" href="#title-l" />
        
        <g mask="url(#textmask)">
            <use x="0" y="195" class="title face" href="#title-B" />
            <use x="0" y="195" class="title face" href="#title-O" />
        </g>
    </g>
</svg>