<svg id="Layer_1" data-name="Layer 1" xmlns="http://www.w3.org/2000/svg" viewBox="0 0 521.25 336.98"><defs><style>.cls-1{fill:#9d9795;}.cls-2{fill:#cfb991;}</style></defs><title>PU-V-Full-RGB</title><path d="M262.42,149.21l18.84-44.27h31.22c45.18,0,62.33-18.54,74.18-46.4,4.39-10.31,11.74-27.57,2-42.25S358.56,0,344,0H178.05l-23.4,55h30L168,94.22h-30.1l-23.41,55Z"/><path class="cls-1" d="M380.19,21.91c-5.27-8-16.79-11.72-36.21-11.72H184.8L170.07,44.77h30l-25.4,59.65H144.61L129.88,139H255.69l14.73-34.6H239.9L244,94.76h68.46c44,0,55.78-19,64.8-40.21,4.86-11.4,9.07-23.32,2.91-32.64M265.3,44.77h50.28c6.93,0,5.94,3.47,5,5.63-2.57,6-8.75,9.77-16.1,9.77H258.74Z"/><path class="cls-2" d="M344,15.5H188.29l-10.2,24h30l-29.92,70.25H148.12l-10.22,24H252.18l10.22-24H231.89l8.63-20.27h72c41.26,0,51.63-17.48,59.93-37s12.82-37-28.43-37m-39.47,50H250.73l11.07-26h53.78c9.52,0,13.36,4.9,9.9,13s-11.45,13-21,13"/><path d="M9.64,198.85l-9.4-2.74v-6.79H37c23.94,0,32.77,7.65,32.77,25.72,0,16.91-9.65,25.67-28.57,25.67H26.31v27.08l9.53,2.73v6.31H0v-6.31l9.64-2.73Zm16.67-.3v33.8l17.51-1.29c4.35-2,8.83-4.63,8.83-15.54,0-8.25-.38-17-16.39-17Z"/><path d="M206.28,239.57H194.39v28.22l9.53,2.73v6.31H168.08v-6.31l9.65-2.73V198.85l-9.53-2.74v-6.79h38.36c22.74,0,31,8.07,31,23.58,0,12-4.67,18.22-15.48,22.5l16.2,31.67,10.46,3.45v6.31H224.38Zm-11.89-41V232l17.72-1.19c5.63-2.79,8.34-7.25,8.34-16.43,0-9.65-3.12-15.72-13.12-15.72Z"/><path d="M255.91,270.52l9.52-2.61V198.85l-9.4-2.74v-6.79h42.29c23.94,0,37.9,14.43,37.9,42.8,0,32.11-14.48,44.71-39.72,44.71H255.91Zm26.31-71.91v69.18h12.53c8.6,0,23.43-1.4,23.43-33,0-24.89-4.47-36.2-23.43-36.2Z"/><path d="M37,322.43C37,333.07,30.88,337,20.8,337S4.57,331,4.57,322.43V301.1L0,299.67v-4H18.65v4l-4.51,1.43v21.33c0,5.5,2.11,8.49,8.11,8.49,2.93,0,7.9-.91,7.9-8.77v-21l-4.56-1.43v-4h16v4L37,301.1Z"/><path d="M69.2,311.45V331l4.51,1.37v4H58v-4L62.59,331V303.25l-2-2.47-2.73-.85v-4.28H68.21l19.86,25V301.1l-4.57-1.37v-4.08H99.24v4.08l-4.57,1.37v35.33H89.34Z"/><path d="M133.2,331l4.57,1.37v4H119.06v-4l4.57-1.37v-30l-4.57-1.38v-4h18.71v4l-4.57,1.38Z"/><path d="M385.14,331l4.56,1.37v4H371v-4l4.56-1.37v-30L371,299.67v-4h18.7v4l-4.56,1.38Z"/><path d="M180.58,336.37h-8.81L158.84,301.1l-4.56-1.43v-4H174v4l-4.63,1.43,8.59,25.09,8.75-25.09-4.57-1.43v-4h16v4l-4.57,1.43Z"/><path d="M217.62,301.1l-4.57-1.37v-4.08h32l.33,12.58h-5.11l-2.48-7.18H227.19v11.44h10.57v5.78H227.19v12.87H238l3.24-7.13h5l-.72,12.36H213.05v-4l4.57-1.14Z"/><path d="M284.49,319.75H281V331l4.57,1.37v4H266.88v-4l4.57-1.37V301.1l-4.57-1.37v-4.08h18.6c11.39,0,14.91,4.41,14.91,11.28,0,4.52-1,8.62-6.59,10.66l6.53,13.28,5.72,1.76v3.74H292.3ZM281,301.1v14.25l6.44-.55a8.56,8.56,0,0,0,3.19-7.1c0-4.07-1.07-6.6-5.26-6.6Z"/><path d="M322.63,323.72h5.66l1.21,5.72a16.48,16.48,0,0,0,8.59,2.36,11.65,11.65,0,0,0,1.32-.05,6.13,6.13,0,0,0,2.53-4.9c0-9.52-19.48-5.28-19.48-19.2,0-6.38,5.84-12.49,15.52-12.49A25.41,25.41,0,0,1,349,298v10.73H343.7l-1.93-6.82a18.66,18.66,0,0,0-6.6-1.32,6.82,6.82,0,0,0-1.1.06,5.62,5.62,0,0,0-2.69,4.78c0,8.15,19.31,5.23,19.31,18.88,0,7.37-6.66,12.65-15.63,12.65a23,23,0,0,1-12.38-3.69Z"/><path d="M422,301.16h-5.28l-2.43,7.26h-5.11V295.65h35.49v12.77h-5l-2.34-7.26h-5.72V331l4.57,1.37v4H417.45v-4L422,331Z"/><path d="M476.61,320.69,465.93,301.1l-4.56-1.43v-4h19.7v4l-4.63,1.43,6.72,13.26,6.76-13.26-4.56-1.43v-4h16.06v4l-4.56,1.43-10.73,19.48V331l4.57,1.37v4H472v-4l4.62-1.37Z"/><polygon points="493.83 251.47 487.64 267.79 460.23 267.79 460.23 236.3 475.75 236.3 477.76 245.12 484.65 245.12 484.65 218.6 477.76 218.6 475.75 227.1 460.23 227.1 460.23 198.61 486.45 198.61 491.45 215.52 500.88 215.52 500.29 189.32 434.04 189.32 434.04 196.11 443.44 198.85 443.44 267.9 433.92 270.52 433.92 276.83 501.59 276.83 503.14 251.47 493.83 251.47"/><path d="M151.17,246.74c0,22.2-10.6,31.4-32.33,31.4-20,0-34.46-8-34.46-29.08V198.85l-9.53-2.74v-6.79h35.72v6.79L101,198.85v50.21c0,12.62,5.84,18.16,19.77,18.16,9.61,0,18.45-5.63,18.45-19.32V198.85l-9.4-2.74v-6.79H160.7v6.79l-9.53,2.74Z"/><path d="M417,246.74c0,22.2-10.6,31.4-32.33,31.4-20,0-34.47-8-34.47-29.08V198.85l-9.52-2.74v-6.79h35.72v6.79l-9.53,2.74v50.21c0,12.62,5.83,18.16,19.77,18.16,9.61,0,18.45-5.63,18.45-19.32V198.85l-9.41-2.74v-6.79h30.84v6.79L417,198.85Z"/><path d="M512.52,336.26a8.73,8.73,0,1,1,8.73-8.73A8.74,8.74,0,0,1,512.52,336.26Zm0-15.65a6.92,6.92,0,1,0,6.92,6.92A6.92,6.92,0,0,0,512.52,320.61Z"/><path d="M511.41,328.33v3.24H509.7v-8.1h3.56c1.76,0,2.71,1,2.71,2.22a1.94,1.94,0,0,1-1.17,1.92c.4.15,1,.56,1,2v.4a6,6,0,0,0,.12,1.54h-1.67a5.75,5.75,0,0,1-.17-1.82v-.12c0-.88-.22-1.3-1.53-1.3Zm0-1.4h1.47c1,0,1.33-.37,1.33-1s-.43-1-1.29-1h-1.51Z"/></svg>